<svg width="157" height="23" viewBox="0 0 157 23" fill="none" xmlns="http://www.w3.org/2000/svg">
<path d="M5.12 22.48C3.44 22.48 2.03 22 0.89 21.04C0.67 20.82 0.54 20.62 0.5 20.44C0.42 20.08 0.33 19.25 0.23 17.95L0.2 17.29C0.2 17.15 0.25 17.05 0.35 16.99C0.47 16.91 0.62 16.87 0.8 16.87C1.06 16.87 1.22 16.98 1.28 17.2C1.64 18.66 2.2 19.74 2.96 20.44C3.74 21.14 4.6 21.49 5.54 21.49C6.58 21.49 7.44 21.16 8.12 20.5C8.8 19.82 9.14 18.93 9.14 17.83C9.14 17.05 9.01 16.41 8.75 15.91C8.51 15.39 8.17 14.96 7.73 14.62C7.29 14.26 6.63 13.81 5.75 13.27L5.15 12.91C4.17 12.31 3.4 11.79 2.84 11.35C2.28 10.91 1.8 10.37 1.4 9.73C1 9.09 0.8 8.36 0.8 7.54C0.8 5.94 1.34 4.63 2.42 3.61C3.5 2.59 5.05 2.08 7.07 2.08C8.09 2.08 9.14 2.3 10.22 2.74C10.36 2.8 10.49 2.9 10.61 3.04C10.73 3.18 10.81 3.33 10.85 3.49C11.05 4.19 11.2 4.76 11.3 5.2C11.4 5.62 11.45 6.04 11.45 6.46C11.45 6.68 11.3 6.79 11 6.79C10.82 6.79 10.64 6.75 10.46 6.67C10.3 6.59 10.2 6.49 10.16 6.37C9.72 5.27 9.21 4.45 8.63 3.91C8.07 3.37 7.38 3.1 6.56 3.1C5.56 3.1 4.73 3.38 4.07 3.94C3.43 4.48 3.11 5.34 3.11 6.52C3.11 7.08 3.29 7.6 3.65 8.08C4.01 8.56 4.46 9 5 9.4C5.56 9.8 6.33 10.3 7.31 10.9C8.25 11.48 9.01 12 9.59 12.46C10.17 12.92 10.66 13.49 11.06 14.17C11.46 14.85 11.66 15.66 11.66 16.6C11.66 18.38 11.06 19.81 9.86 20.89C8.66 21.95 7.08 22.48 5.12 22.48ZM14.7453 22.15C14.1653 22.15 13.8753 22.04 13.8753 21.82C13.8753 21.68 13.9553 21.57 14.1153 21.49C14.2753 21.41 14.5253 21.34 14.8653 21.28C15.6253 21.14 16.1453 20.91 16.4253 20.59C16.7253 20.25 16.8753 19.71 16.8753 18.97V5.47C16.8753 4.79 16.7253 4.3 16.4253 4C16.1453 3.7 15.6253 3.48 14.8653 3.34C14.2053 3.22 13.8753 3.02 13.8753 2.74C13.8753 2.52 14.1653 2.41 14.7453 2.41L16.6053 2.44C16.9053 2.46 17.4053 2.47 18.1053 2.47C18.6653 2.47 19.0553 2.46 19.2753 2.44L21.0153 2.41C21.5953 2.41 21.8853 2.52 21.8853 2.74C21.8853 3.02 21.5553 3.22 20.8953 3.34C20.1953 3.46 19.7453 3.68 19.5453 4C19.3653 4.32 19.2753 4.81 19.2753 5.47V11.08C19.2753 11.46 19.3253 11.65 19.4253 11.65C19.5253 11.65 19.6553 11.6 19.8153 11.5C19.9753 11.38 20.1153 11.25 20.2353 11.11L26.2353 4.99C26.5353 4.69 26.6853 4.39 26.6853 4.09C26.6853 3.93 26.6353 3.79 26.5353 3.67C26.4353 3.53 26.2953 3.44 26.1153 3.4C25.7753 3.3 25.5353 3.21 25.3953 3.13C25.2553 3.05 25.1853 2.94 25.1853 2.8C25.1853 2.58 25.4753 2.47 26.0553 2.47H27.6753C28.1353 2.47 29.4153 2.44 31.5153 2.38L32.5353 2.35C32.7353 2.35 32.8953 2.38 33.0153 2.44C33.1353 2.5 33.1953 2.58 33.1953 2.68C33.1953 2.96 32.8653 3.16 32.2053 3.28C30.3253 3.62 28.8053 4.28 27.6453 5.26C26.5653 6.16 25.5953 7.03 24.7353 7.87C23.8953 8.71 22.9453 9.71 21.8853 10.87C21.8453 10.91 21.8253 10.96 21.8253 11.02C21.8253 11.14 21.8953 11.27 22.0353 11.41L29.2953 19.15C29.9953 19.93 30.5153 20.44 30.8553 20.68C31.1953 20.9 31.7753 21.1 32.5953 21.28C32.9553 21.36 33.2053 21.44 33.3453 21.52C33.5053 21.6 33.5853 21.7 33.5853 21.82C33.5853 22.04 33.2953 22.15 32.7153 22.15C31.9153 22.15 31.1953 22.12 30.5553 22.06C29.7553 22.02 29.0853 22 28.5453 22H27.7053C27.4453 22.02 26.9153 22.03 26.1153 22.03C25.5353 22.03 25.2453 21.92 25.2453 21.7C25.2453 21.56 25.3053 21.46 25.4253 21.4C25.5453 21.32 25.7553 21.25 26.0553 21.19C26.6153 21.05 26.8953 20.85 26.8953 20.59C26.8953 20.43 26.7453 20.18 26.4453 19.84L20.0853 12.82C19.7453 12.48 19.5153 12.31 19.3953 12.31C19.3153 12.31 19.2753 12.45 19.2753 12.73C19.2753 13.95 19.3253 15.94 19.4253 18.7C19.4653 19.42 19.6153 20 19.8753 20.44C20.1553 20.88 20.6453 21.16 21.3453 21.28C21.6853 21.34 21.9353 21.41 22.0953 21.49C22.2553 21.57 22.3353 21.68 22.3353 21.82C22.3353 22.04 22.0453 22.15 21.4653 22.15C20.8253 22.15 20.2453 22.11 19.7253 22.03C19.3653 21.97 18.9653 21.94 18.5253 21.94C18.1853 21.94 17.8353 21.96 17.4753 22C17.1353 22.02 16.8853 22.03 16.7253 22.03C15.9653 22.11 15.3053 22.15 14.7453 22.15ZM36.8152 22.42C36.3752 22.42 35.9852 22.26 35.6452 21.94C35.3252 21.6 35.1652 21.21 35.1652 20.77C35.1652 20.31 35.3252 19.92 35.6452 19.6C35.9852 19.28 36.3752 19.12 36.8152 19.12C37.2752 19.12 37.6652 19.28 37.9852 19.6C38.3052 19.92 38.4652 20.31 38.4652 20.77C38.4652 21.21 38.3052 21.6 37.9852 21.94C37.6652 22.26 37.2752 22.42 36.8152 22.42Z" fill="#626262"/>
<path d="M41.0893 22.15C40.8293 22.15 40.6193 22.11 40.4593 22.03C40.2993 21.97 40.2193 21.88 40.2193 21.76C40.2193 21.5 40.5493 21.27 41.2093 21.07C41.7893 20.89 42.2893 20.64 42.7093 20.32C43.1293 19.98 43.4893 19.46 43.7893 18.76C44.8493 16.32 45.7693 14.11 46.5493 12.13C47.3493 10.13 48.2993 7.64 49.3993 4.66C49.6193 4.04 49.7593 3.46 49.8193 2.92C49.8793 2.9 50.0193 2.86 50.2393 2.8C50.4793 2.72 50.6993 2.61 50.8993 2.47C51.0593 2.35 51.1793 2.17 51.2593 1.93C51.3593 1.69 51.4293 1.53 51.4693 1.45C51.4893 1.43 51.5093 1.43 51.5293 1.45C51.5693 1.45 51.5993 1.46 51.6193 1.48C51.6593 1.58 51.6893 1.69 51.7093 1.81C51.7493 1.93 51.7893 2.04 51.8293 2.14C53.3093 6.8 55.0893 12.14 57.1693 18.16C57.5493 19.26 57.9693 20.01 58.4293 20.41C58.8893 20.79 59.4793 21.04 60.1993 21.16C60.5193 21.22 60.7593 21.32 60.9193 21.46C61.0993 21.58 61.1893 21.71 61.1893 21.85C61.1893 22.05 60.8993 22.15 60.3193 22.15L58.6993 22.09C57.5793 22.01 56.7293 21.97 56.1493 21.97L52.9993 22C52.4193 22 52.1293 21.88 52.1293 21.64C52.1293 21.52 52.2193 21.41 52.3993 21.31C52.5993 21.19 52.8393 21.11 53.1193 21.07C54.3393 20.87 54.9493 20.42 54.9493 19.72C54.9493 19.08 54.5593 17.46 53.7793 14.86C53.7393 14.72 53.6593 14.63 53.5393 14.59C53.4393 14.55 53.2493 14.53 52.9693 14.53H47.2993C47.0793 14.53 46.9093 14.71 46.7893 15.07C46.5693 15.71 46.3093 16.55 46.0093 17.59C45.7093 18.61 45.5593 19.21 45.5593 19.39C45.5593 19.81 45.7193 20.17 46.0393 20.47C46.3793 20.77 46.7993 20.98 47.2993 21.1C47.6593 21.2 47.9093 21.29 48.0493 21.37C48.2093 21.45 48.2893 21.56 48.2893 21.7C48.2893 21.92 47.9993 22.03 47.4193 22.03C47.0593 22.03 46.7593 22.02 46.5193 22L44.6893 21.97C44.3493 21.97 43.9693 21.98 43.5493 22C43.1493 22.04 42.8493 22.06 42.6493 22.06C42.0893 22.12 41.5693 22.15 41.0893 22.15ZM52.7593 13.54C52.8793 13.54 52.9793 13.53 53.0593 13.51C53.1393 13.49 53.1793 13.45 53.1793 13.39L53.1193 13.09L50.7793 5.77C50.6593 5.41 50.5693 5.23 50.5093 5.23C50.4693 5.23 50.3893 5.4 50.2693 5.74L47.5393 13.09L47.4793 13.33C47.4793 13.43 47.5193 13.49 47.5993 13.51C47.6993 13.53 47.8693 13.54 48.1093 13.54H52.7593ZM67.4408 22.45C66.3608 22.45 65.4008 22.18 64.5608 21.64C63.7408 21.1 63.1008 20.34 62.6408 19.36C62.1808 18.36 61.9508 17.21 61.9508 15.91C61.9508 14.79 62.2108 13.74 62.7308 12.76C63.2708 11.78 63.9808 11.01 64.8608 10.45C65.7408 9.87 66.7008 9.58 67.7408 9.58C68.9408 9.58 69.9208 9.94 70.6808 10.66C71.4608 11.36 71.8508 12.26 71.8508 13.36C71.8508 13.98 71.5508 14.29 70.9508 14.29H64.6208C64.3408 14.29 64.1408 14.37 64.0208 14.53C63.9208 14.67 63.8708 14.96 63.8708 15.4C63.8708 16.34 64.0708 17.21 64.4708 18.01C64.8908 18.81 65.4508 19.45 66.1508 19.93C66.8708 20.39 67.6508 20.62 68.4908 20.62C69.6708 20.62 70.6508 20.17 71.4308 19.27C71.5508 19.11 71.6608 19.03 71.7608 19.03C71.9208 19.03 72.0008 19.13 72.0008 19.33C72.0008 19.71 71.8208 20.13 71.4608 20.59C71.0208 21.17 70.4408 21.63 69.7208 21.97C69.0008 22.29 68.2408 22.45 67.4408 22.45ZM67.4108 13.36C68.3508 13.36 69.0908 13.31 69.6308 13.21C69.7908 13.19 69.8708 12.97 69.8708 12.55C69.8708 11.97 69.6108 11.48 69.0908 11.08C68.5908 10.66 67.9908 10.45 67.2908 10.45C66.8508 10.45 66.3908 10.59 65.9108 10.87C65.4508 11.13 65.0708 11.46 64.7708 11.86C64.4708 12.26 64.3208 12.66 64.3208 13.06C64.3208 13.26 64.4408 13.36 64.6808 13.36H67.4108ZM77.0602 22.42C76.4402 22.42 75.8602 22.32 75.3202 22.12C74.7802 21.94 74.3202 21.68 73.9402 21.34C73.7802 21.02 73.6702 20.22 73.6102 18.94C73.6102 18.76 73.7402 18.67 74.0002 18.67C74.2202 18.67 74.3402 18.74 74.3602 18.88C74.6002 19.8 74.9902 20.49 75.5302 20.95C76.0902 21.39 76.6902 21.61 77.3302 21.61C77.9102 21.61 78.4002 21.42 78.8002 21.04C79.2202 20.64 79.4302 20.15 79.4302 19.57C79.4302 19.05 79.2502 18.6 78.8902 18.22C78.5502 17.82 77.9202 17.33 77.0002 16.75C75.9602 16.11 75.2202 15.52 74.7802 14.98C74.3602 14.42 74.1502 13.77 74.1502 13.03C74.1502 12.03 74.5002 11.21 75.2002 10.57C75.9002 9.91 76.9002 9.58 78.2002 9.58C78.7602 9.58 79.2402 9.64 79.6402 9.76C80.0602 9.86 80.3802 9.99 80.6002 10.15C80.7602 10.37 80.8902 10.72 80.9902 11.2C81.1102 11.66 81.1702 12.1 81.1702 12.52C81.1702 12.66 81.0702 12.73 80.8702 12.73C80.7502 12.73 80.6302 12.71 80.5102 12.67C80.3902 12.61 80.3202 12.54 80.3002 12.46C80.0202 11.78 79.6802 11.27 79.2802 10.93C78.9002 10.59 78.4302 10.42 77.8702 10.42C77.3502 10.42 76.9002 10.58 76.5202 10.9C76.1402 11.22 75.9502 11.65 75.9502 12.19C75.9502 12.67 76.0902 13.09 76.3702 13.45C76.6702 13.79 77.2202 14.19 78.0202 14.65C79.2802 15.37 80.1702 16.02 80.6902 16.6C81.2102 17.16 81.4702 17.88 81.4702 18.76C81.4702 19.84 81.0602 20.72 80.2402 21.4C79.4202 22.08 78.3602 22.42 77.0602 22.42ZM88.1075 22.42C87.1075 22.42 86.3375 22.12 85.7975 21.52C85.2575 20.9 84.9875 20.01 84.9875 18.85V11.89C84.9875 11.71 84.9175 11.59 84.7775 11.53C84.6575 11.47 84.4075 11.44 84.0275 11.44H83.8475C83.7475 11.44 83.6575 11.38 83.5775 11.26C83.5175 11.14 83.4875 11 83.4875 10.84C83.4875 10.8 83.5075 10.75 83.5475 10.69C83.6075 10.61 83.6575 10.55 83.6975 10.51C84.7775 9.75 85.6675 8.95 86.3675 8.11C86.4475 8.01 86.5275 7.93 86.6075 7.87C86.6875 7.79 86.7775 7.75 86.8775 7.75C87.1575 7.75 87.2875 7.86 87.2675 8.08L87.1175 9.43V9.55C87.1175 9.73 87.1775 9.85 87.2975 9.91C87.4175 9.97 87.5975 10 87.8375 10H91.2575C91.3375 10 91.4075 10.07 91.4675 10.21C91.5275 10.33 91.5575 10.48 91.5575 10.66C91.5575 10.84 91.5275 11.02 91.4675 11.2C91.4075 11.36 91.3375 11.44 91.2575 11.44H88.2875C87.7475 11.44 87.4075 11.48 87.2675 11.56C87.1475 11.64 87.0875 11.88 87.0875 12.28V18.19C87.0875 19.01 87.2575 19.65 87.5975 20.11C87.9375 20.55 88.4275 20.77 89.0675 20.77C89.6275 20.77 90.0675 20.73 90.3875 20.65C90.7275 20.57 91.0275 20.43 91.2875 20.23L91.4075 20.17C91.5475 20.17 91.6175 20.31 91.6175 20.59C91.6175 20.71 91.4375 20.93 91.0775 21.25C90.7175 21.55 90.2675 21.82 89.7275 22.06C89.2075 22.3 88.6675 22.42 88.1075 22.42ZM93.0411 22.09C92.6411 22.09 92.4411 21.98 92.4411 21.76C92.4411 21.64 92.4911 21.55 92.5911 21.49C92.6911 21.43 92.8711 21.36 93.1311 21.28C93.5311 21.16 93.8411 21.02 94.0611 20.86C94.2811 20.68 94.4011 20.41 94.4211 20.05V5.02C94.4211 3.74 93.9811 3.02 93.1011 2.86C92.9211 2.82 92.8311 2.68 92.8311 2.44C92.8311 2.26 92.9111 2.14 93.0711 2.08C94.6511 1.58 95.7611 1.19 96.4011 0.91C96.4811 0.869999 96.5411 0.849999 96.5811 0.849999C96.7211 0.849999 96.7911 0.919999 96.7911 1.06C96.7911 1.16 96.7411 1.47 96.6411 1.99C96.5611 2.49 96.5211 3.54 96.5211 5.14V10.36C96.5211 10.66 96.5311 10.89 96.5511 11.05C96.5911 11.19 96.6511 11.33 96.7311 11.47C98.4311 10.21 99.9511 9.58 101.291 9.58C102.271 9.58 103.081 9.97 103.721 10.75C104.381 11.53 104.711 12.5 104.711 13.66V19.96C104.711 20.6 105.121 21.04 105.941 21.28C106.181 21.34 106.351 21.41 106.451 21.49C106.571 21.55 106.631 21.64 106.631 21.76C106.631 21.98 106.431 22.09 106.031 22.09C105.531 22.09 105.111 22.06 104.771 22C104.371 21.96 104.011 21.94 103.691 21.94C103.371 21.94 103.011 21.96 102.611 22C102.291 22.06 101.871 22.09 101.351 22.09C100.951 22.09 100.751 21.98 100.751 21.76C100.751 21.64 100.791 21.56 100.871 21.52C100.971 21.46 101.161 21.38 101.441 21.28C101.801 21.16 102.081 21 102.281 20.8C102.501 20.6 102.611 20.32 102.611 19.96V13.84C102.611 13.36 102.471 12.92 102.191 12.52C101.911 12.1 101.551 11.77 101.111 11.53C100.691 11.27 100.261 11.14 99.8211 11.14C99.4011 11.14 98.9411 11.2 98.4411 11.32C97.9611 11.44 97.5911 11.6 97.3311 11.8C97.0111 12.06 96.7911 12.34 96.6711 12.64C96.5711 12.92 96.5211 13.36 96.5211 13.96V20.05C96.5411 20.41 96.6511 20.68 96.8511 20.86C97.0511 21.02 97.3311 21.16 97.6911 21.28C97.9111 21.34 98.0711 21.41 98.1711 21.49C98.2911 21.55 98.3511 21.64 98.3511 21.76C98.3511 21.88 98.3011 21.96 98.2011 22C98.1211 22.06 97.9711 22.09 97.7511 22.09C97.2311 22.09 96.8211 22.06 96.5211 22C96.1611 21.96 95.8111 21.94 95.4711 21.94C95.1511 21.94 94.7711 21.96 94.3311 22C94.0111 22.06 93.5811 22.09 93.0411 22.09ZM113.701 22.45C112.621 22.45 111.661 22.18 110.821 21.64C110.001 21.1 109.361 20.34 108.901 19.36C108.441 18.36 108.211 17.21 108.211 15.91C108.211 14.79 108.471 13.74 108.991 12.76C109.531 11.78 110.241 11.01 111.121 10.45C112.001 9.87 112.961 9.58 114.001 9.58C115.201 9.58 116.181 9.94 116.941 10.66C117.721 11.36 118.111 12.26 118.111 13.36C118.111 13.98 117.811 14.29 117.211 14.29H110.881C110.601 14.29 110.401 14.37 110.281 14.53C110.181 14.67 110.131 14.96 110.131 15.4C110.131 16.34 110.331 17.21 110.731 18.01C111.151 18.81 111.711 19.45 112.411 19.93C113.131 20.39 113.911 20.62 114.751 20.62C115.931 20.62 116.911 20.17 117.691 19.27C117.811 19.11 117.921 19.03 118.021 19.03C118.181 19.03 118.261 19.13 118.261 19.33C118.261 19.71 118.081 20.13 117.721 20.59C117.281 21.17 116.701 21.63 115.981 21.97C115.261 22.29 114.501 22.45 113.701 22.45ZM113.671 13.36C114.611 13.36 115.351 13.31 115.891 13.21C116.051 13.19 116.131 12.97 116.131 12.55C116.131 11.97 115.871 11.48 115.351 11.08C114.851 10.66 114.251 10.45 113.551 10.45C113.111 10.45 112.651 10.59 112.171 10.87C111.711 11.13 111.331 11.46 111.031 11.86C110.731 12.26 110.581 12.66 110.581 13.06C110.581 13.26 110.701 13.36 110.941 13.36H113.671ZM124.67 22.42C123.67 22.42 122.9 22.12 122.36 21.52C121.82 20.9 121.55 20.01 121.55 18.85V11.89C121.55 11.71 121.48 11.59 121.34 11.53C121.22 11.47 120.97 11.44 120.59 11.44H120.41C120.31 11.44 120.22 11.38 120.14 11.26C120.08 11.14 120.05 11 120.05 10.84C120.05 10.8 120.07 10.75 120.11 10.69C120.17 10.61 120.22 10.55 120.26 10.51C121.34 9.75 122.23 8.95 122.93 8.11C123.01 8.01 123.09 7.93 123.17 7.87C123.25 7.79 123.34 7.75 123.44 7.75C123.72 7.75 123.85 7.86 123.83 8.08L123.68 9.43V9.55C123.68 9.73 123.74 9.85 123.86 9.91C123.98 9.97 124.16 10 124.4 10H127.82C127.9 10 127.97 10.07 128.03 10.21C128.09 10.33 128.12 10.48 128.12 10.66C128.12 10.84 128.09 11.02 128.03 11.2C127.97 11.36 127.9 11.44 127.82 11.44H124.85C124.31 11.44 123.97 11.48 123.83 11.56C123.71 11.64 123.65 11.88 123.65 12.28V18.19C123.65 19.01 123.82 19.65 124.16 20.11C124.5 20.55 124.99 20.77 125.63 20.77C126.19 20.77 126.63 20.73 126.95 20.65C127.29 20.57 127.59 20.43 127.85 20.23L127.97 20.17C128.11 20.17 128.18 20.31 128.18 20.59C128.18 20.71 128 20.93 127.64 21.25C127.28 21.55 126.83 21.82 126.29 22.06C125.77 22.3 125.23 22.42 124.67 22.42ZM129.754 22.09C129.354 22.09 129.154 21.98 129.154 21.76C129.154 21.62 129.204 21.52 129.304 21.46C129.424 21.4 129.604 21.34 129.844 21.28C130.304 21.16 130.634 21.03 130.834 20.89C131.034 20.73 131.134 20.48 131.134 20.14V13.63C131.134 12.31 130.684 11.58 129.784 11.44C129.584 11.42 129.484 11.29 129.484 11.05C129.484 10.83 129.574 10.71 129.754 10.69C130.974 10.41 132.024 9.91 132.904 9.19C133.084 9.05 133.224 8.98 133.324 8.98C133.444 8.98 133.504 9.03 133.504 9.13C133.504 9.35 133.474 9.73 133.414 10.27C133.394 10.51 133.354 10.96 133.294 11.62C133.254 12.26 133.234 12.78 133.234 13.18V20.14C133.234 20.46 133.334 20.7 133.534 20.86C133.754 21.02 134.084 21.16 134.524 21.28C134.764 21.34 134.934 21.4 135.034 21.46C135.154 21.52 135.214 21.62 135.214 21.76C135.214 21.98 135.014 22.09 134.614 22.09C134.114 22.09 133.694 22.06 133.354 22C132.914 21.96 132.524 21.94 132.184 21.94C131.864 21.94 131.484 21.96 131.044 22C130.724 22.06 130.294 22.09 129.754 22.09ZM132.154 6.52C131.734 6.52 131.374 6.38 131.074 6.1C130.794 5.8 130.654 5.44 130.654 5.02C130.654 4.58 130.794 4.22 131.074 3.94C131.374 3.64 131.734 3.49 132.154 3.49C132.594 3.49 132.954 3.64 133.234 3.94C133.534 4.22 133.684 4.58 133.684 5.02C133.684 5.44 133.534 5.8 133.234 6.1C132.954 6.38 132.594 6.52 132.154 6.52ZM142.177 22.45C141.177 22.45 140.267 22.2 139.447 21.7C138.647 21.18 138.007 20.48 137.527 19.6C137.067 18.7 136.837 17.7 136.837 16.6C136.837 15.32 137.117 14.15 137.677 13.09C138.257 12.01 139.027 11.16 139.987 10.54C140.947 9.9 142.007 9.58 143.167 9.58C144.467 9.58 145.607 9.93 146.587 10.63C146.827 10.81 146.947 11 146.947 11.2C146.947 11.46 146.797 11.73 146.497 12.01C146.197 12.29 145.917 12.43 145.657 12.43C145.557 12.43 145.457 12.4 145.357 12.34C145.257 12.26 145.147 12.18 145.027 12.1C144.527 11.72 144.017 11.39 143.497 11.11C142.977 10.83 142.547 10.69 142.207 10.69C141.227 10.69 140.427 11.15 139.807 12.07C139.207 12.99 138.907 14.18 138.907 15.64C138.907 16.56 139.107 17.41 139.507 18.19C139.907 18.95 140.457 19.55 141.157 19.99C141.857 20.43 142.627 20.65 143.467 20.65C144.047 20.65 144.547 20.56 144.967 20.38C145.387 20.18 145.837 19.84 146.317 19.36C146.417 19.26 146.517 19.21 146.617 19.21C146.717 19.21 146.797 19.25 146.857 19.33C146.917 19.41 146.947 19.51 146.947 19.63C146.947 19.85 146.797 20.16 146.497 20.56C146.017 21.18 145.407 21.65 144.667 21.97C143.927 22.29 143.097 22.45 142.177 22.45ZM152.324 22.42C151.704 22.42 151.124 22.32 150.584 22.12C150.044 21.94 149.584 21.68 149.204 21.34C149.044 21.02 148.934 20.22 148.874 18.94C148.874 18.76 149.004 18.67 149.264 18.67C149.484 18.67 149.604 18.74 149.624 18.88C149.864 19.8 150.254 20.49 150.794 20.95C151.354 21.39 151.954 21.61 152.594 21.61C153.174 21.61 153.664 21.42 154.064 21.04C154.484 20.64 154.694 20.15 154.694 19.57C154.694 19.05 154.514 18.6 154.154 18.22C153.814 17.82 153.184 17.33 152.264 16.75C151.224 16.11 150.484 15.52 150.044 14.98C149.624 14.42 149.414 13.77 149.414 13.03C149.414 12.03 149.764 11.21 150.464 10.57C151.164 9.91 152.164 9.58 153.464 9.58C154.024 9.58 154.504 9.64 154.904 9.76C155.324 9.86 155.644 9.99 155.864 10.15C156.024 10.37 156.154 10.72 156.254 11.2C156.374 11.66 156.434 12.1 156.434 12.52C156.434 12.66 156.334 12.73 156.134 12.73C156.014 12.73 155.894 12.71 155.774 12.67C155.654 12.61 155.584 12.54 155.564 12.46C155.284 11.78 154.944 11.27 154.544 10.93C154.164 10.59 153.694 10.42 153.134 10.42C152.614 10.42 152.164 10.58 151.784 10.9C151.404 11.22 151.214 11.65 151.214 12.19C151.214 12.67 151.354 13.09 151.634 13.45C151.934 13.79 152.484 14.19 153.284 14.65C154.544 15.37 155.434 16.02 155.954 16.6C156.474 17.16 156.734 17.88 156.734 18.76C156.734 19.84 156.324 20.72 155.504 21.4C154.684 22.08 153.624 22.42 152.324 22.42Z" fill="#0FC7BC"/>
</svg>
